REM DIRINDEX 1\2\4\18,1\2\4\19,1\2\5\20,1\2\5\21,1\2\6\22,1\2\7\23,1\2\8\24,1\2\8\25,1\2\9\26,1\2\10\27,1\3\11\28,1\3\11\29,1\3\11\30,1\3\11\31,1\3\12\32,1\3\12\33,1\3\12\34,1\3\12\35,1\3\13\36,1\3\13\37,1\3\14\38,1\3\14\39,1\3\15\40,1\3\15\41,1\3\15\42,1\3\16\43,1\3\16\44,1\3\17\45,1\3\17\46
REM DIRNAME folder01,folder02,folder03,folder04,folder05,folder06,folder07,folder08,folder09,folder10,folder11,folder12,folder13,folder14,folder15,folder16,folder17,folder18,folder19,folder20,folder21,folder22,folder23,folder24,folder25,folder26,folder27,folder28,folder29,folder30,folder31,folder32,folder33,folder34,folder35,folder36,folder37,folder38,folder39,folder40,folder41,folder42,folder43,folder44,folder45,folder46
TITLE ""
FILE "07.mp3" MP3
  TRACK 01 AUDIO
    TITLE "0:"
    INDEX 01 00:00:00
  TRACK 02 AUDIO
    TITLE "18:cjc023_1033"
    INDEX 01 00:00:13
  TRACK 03 AUDIO
    TITLE "0:"
    INDEX 01 00:01:15
  TRACK 04 AUDIO
    TITLE "19:cjc023_1034"
    INDEX 01 00:01:38
  TRACK 05 AUDIO
    TITLE "0:"
    INDEX 01 00:03:72
  TRACK 06 AUDIO
    TITLE "18:cjc023_1035"
    INDEX 01 00:04:70
  TRACK 07 AUDIO
    TITLE "0:"
    INDEX 01 00:06:10
  TRACK 08 AUDIO
    TITLE "19:cjc023_1036"
    INDEX 01 00:06:35
  TRACK 09 AUDIO
    TITLE "0:"
    INDEX 01 00:09:08
  TRACK 10 AUDIO
    TITLE "18:cjc023_1037"
    INDEX 01 00:10:06
  TRACK 11 AUDIO
    TITLE "0:"
    INDEX 01 00:11:35
  TRACK 12 AUDIO
    TITLE "19:cjc023_1038"
    INDEX 01 00:11:58
  TRACK 13 AUDIO
    TITLE "0:"
    INDEX 01 00:14:07
  TRACK 14 AUDIO
    TITLE "18:cjc023_1039"
    INDEX 01 00:15:03
  TRACK 15 AUDIO
    TITLE "0:"
    INDEX 01 00:16:22
  TRACK 16 AUDIO
    TITLE "19:cjc023_1040"
    INDEX 01 00:16:46
  TRACK 17 AUDIO
    TITLE "0:"
    INDEX 01 00:19:20
  TRACK 18 AUDIO
    TITLE "18:cjc023_1041"
    INDEX 01 00:20:16
  TRACK 19 AUDIO
    TITLE "0:"
    INDEX 01 00:21:43
  TRACK 20 AUDIO
    TITLE "19:cjc023_1042"
    INDEX 01 00:21:68
  TRACK 21 AUDIO
    TITLE "0:"
    INDEX 01 00:24:51
  TRACK 22 AUDIO
    TITLE "18:cjc023_1043"
    INDEX 01 00:25:50
  TRACK 23 AUDIO
    TITLE "0:"
    INDEX 01 00:26:69
  TRACK 24 AUDIO
    TITLE "19:cjc023_1044"
    INDEX 01 00:27:16
  TRACK 25 AUDIO
    TITLE "0:"
    INDEX 01 00:30:12
  TRACK 26 AUDIO
    TITLE "18:cjc023_1045"
    INDEX 01 00:31:08
  TRACK 27 AUDIO
    TITLE "0:"
    INDEX 01 00:32:33
  TRACK 28 AUDIO
    TITLE "19:cjc023_1046"
    INDEX 01 00:32:52
  TRACK 29 AUDIO
    TITLE "0:"
    INDEX 01 00:35:08
  TRACK 30 AUDIO
    TITLE "18:cjc023_1047"
    INDEX 01 00:36:01
  TRACK 31 AUDIO
    TITLE "0:"
    INDEX 01 00:37:16
  TRACK 32 AUDIO
    TITLE "19:cjc023_1048"
    INDEX 01 00:37:38
  TRACK 33 AUDIO
    TITLE "0:"
    INDEX 01 00:41:45
  TRACK 34 AUDIO
    TITLE "18:cjc023_1049"
    INDEX 01 00:42:41
  TRACK 35 AUDIO
    TITLE "0:"
    INDEX 01 00:43:54
  TRACK 36 AUDIO
    TITLE "19:cjc023_1050"
    INDEX 01 00:44:01
  TRACK 37 AUDIO
    TITLE "0:"
    INDEX 01 00:46:09
  TRACK 38 AUDIO
    TITLE "18:cjc023_1051"
    INDEX 01 00:47:07
  TRACK 39 AUDIO
    TITLE "0:"
    INDEX 01 00:48:40
  TRACK 40 AUDIO
    TITLE "19:cjc023_1052"
    INDEX 01 00:48:63
  TRACK 41 AUDIO
    TITLE "0:"
    INDEX 01 00:50:68
  TRACK 42 AUDIO
    TITLE "18:cjc023_1053"
    INDEX 01 00:51:73
  TRACK 43 AUDIO
    TITLE "0:"
    INDEX 01 00:53:21
  TRACK 44 AUDIO
    TITLE "19:cjc023_1054"
    INDEX 01 00:53:43
  TRACK 45 AUDIO
    TITLE "0:"
    INDEX 01 00:55:18
  TRACK 46 AUDIO
    TITLE "18:cjc023_1055"
    INDEX 01 00:56:16
  TRACK 47 AUDIO
    TITLE "0:"
    INDEX 01 00:57:17
  TRACK 48 AUDIO
    TITLE "19:cjc023_1056"
    INDEX 01 00:57:39
  TRACK 49 AUDIO
    TITLE "0:"
    INDEX 01 00:58:67
  TRACK 50 AUDIO
    TITLE "18:cjc023_1057"
    INDEX 01 00:59:63
  TRACK 51 AUDIO
    TITLE "0:"
    INDEX 01 01:01:27
  TRACK 52 AUDIO
    TITLE "19:cjc023_1058"
    INDEX 01 01:01:46
  TRACK 53 AUDIO
    TITLE "0:"
    INDEX 01 01:04:05
  TRACK 54 AUDIO
    TITLE "18:cjc023_1059"
    INDEX 01 01:05:01
  TRACK 55 AUDIO
    TITLE "0:"
    INDEX 01 01:06:12
  TRACK 56 AUDIO
    TITLE "19:cjc023_1060"
    INDEX 01 01:06:34
  TRACK 57 AUDIO
    TITLE "0:"
    INDEX 01 01:08:13
  TRACK 58 AUDIO
    TITLE "18:cjc023_1061"
    INDEX 01 01:09:14
  TRACK 59 AUDIO
    TITLE "0:"
    INDEX 01 01:10:31
  TRACK 60 AUDIO
    TITLE "19:cjc023_1062"
    INDEX 01 01:10:55
  TRACK 61 AUDIO
    TITLE "0:"
    INDEX 01 01:12:46
  TRACK 62 AUDIO
    TITLE "18:cjc023_1063"
    INDEX 01 01:13:44
  TRACK 63 AUDIO
    TITLE "0:"
    INDEX 01 01:14:70
  TRACK 64 AUDIO
    TITLE "19:cjc023_1064"
    INDEX 01 01:15:17
  TRACK 65 AUDIO
    TITLE "0:"
    INDEX 01 01:17:32
  TRACK 66 AUDIO
    TITLE "18:cjc023_1065"
    INDEX 01 01:18:25
  TRACK 67 AUDIO
    TITLE "0:"
    INDEX 01 01:19:40
  TRACK 68 AUDIO
    TITLE "19:cjc023_1066"
    INDEX 01 01:19:62
  TRACK 69 AUDIO
    TITLE "0:"
    INDEX 01 01:21:61
  TRACK 70 AUDIO
    TITLE "18:cjc023_1067"
    INDEX 01 01:22:56
  TRACK 71 AUDIO
    TITLE "0:"
    INDEX 01 01:23:67
  TRACK 72 AUDIO
    TITLE "19:cjc023_1068"
    INDEX 01 01:24:12
  TRACK 73 AUDIO
    TITLE "0:"
    INDEX 01 01:25:58
  TRACK 74 AUDIO
    TITLE "18:cjc023_1069"
    INDEX 01 01:26:56
  TRACK 75 AUDIO
    TITLE "0:"
    INDEX 01 01:28:00
  TRACK 76 AUDIO
    TITLE "19:cjc023_1070"
    INDEX 01 01:28:27
  TRACK 77 AUDIO
    TITLE "0:"
    INDEX 01 01:30:32
  TRACK 78 AUDIO
    TITLE "18:cjc023_1071"
    INDEX 01 01:31:28
  TRACK 79 AUDIO
    TITLE "0:"
    INDEX 01 01:32:37
  TRACK 80 AUDIO
    TITLE "19:cjc023_1072"
    INDEX 01 01:32:60
  TRACK 81 AUDIO
    TITLE "0:"
    INDEX 01 01:35:06
  TRACK 82 AUDIO
    TITLE "18:cjc023_1073"
    INDEX 01 01:36:03
  TRACK 83 AUDIO
    TITLE "0:"
    INDEX 01 01:37:22
  TRACK 84 AUDIO
    TITLE "19:cjc023_1074"
    INDEX 01 01:37:46
  TRACK 85 AUDIO
    TITLE "0:"
    INDEX 01 01:40:15
  TRACK 86 AUDIO
    TITLE "18:cjc023_1075"
    INDEX 01 01:41:16
  TRACK 87 AUDIO
    TITLE "0:"
    INDEX 01 01:42:28
  TRACK 88 AUDIO
    TITLE "19:cjc023_1076"
    INDEX 01 01:42:51
  TRACK 89 AUDIO
    TITLE "0:"
    INDEX 01 01:45:16
  TRACK 90 AUDIO
    TITLE "18:cjc023_1077"
    INDEX 01 01:46:14
  TRACK 91 AUDIO
    TITLE "0:"
    INDEX 01 01:47:19
  TRACK 92 AUDIO
    TITLE "19:cjc023_1078"
    INDEX 01 01:47:42
  TRACK 93 AUDIO
    TITLE "0:"
    INDEX 01 01:49:73
  TRACK 94 AUDIO
    TITLE "18:cjc023_1079"
    INDEX 01 01:51:01
  TRACK 95 AUDIO
    TITLE "0:"
    INDEX 01 01:52:22
  TRACK 96 AUDIO
    TITLE "19:cjc023_1080"
    INDEX 01 01:52:44
  TRACK 97 AUDIO
    TITLE "0:"
    INDEX 01 01:56:24
  TRACK 98 AUDIO
    TITLE "18:cjc023_1081"
    INDEX 01 01:57:23
  TRACK 99 AUDIO
    TITLE "0:"
    INDEX 01 01:58:38
  TRACK 100 AUDIO
    TITLE "19:cjc023_1082"
    INDEX 01 01:58:60
  TRACK 101 AUDIO
    TITLE "0:"
    INDEX 01 02:01:19
  TRACK 102 AUDIO
    TITLE "18:cjc023_1083"
    INDEX 01 02:02:18
  TRACK 103 AUDIO
    TITLE "0:"
    INDEX 01 02:03:47
  TRACK 104 AUDIO
    TITLE "19:cjc023_1084"
    INDEX 01 02:03:73
  TRACK 105 AUDIO
    TITLE "0:"
    INDEX 01 02:06:32
  TRACK 106 AUDIO
    TITLE "18:cjc023_1085"
    INDEX 01 02:07:31
  TRACK 107 AUDIO
    TITLE "0:"
    INDEX 01 02:08:56
  TRACK 108 AUDIO
    TITLE "19:cjc023_1086"
    INDEX 01 02:09:03
  TRACK 109 AUDIO
    TITLE "0:"
    INDEX 01 02:11:17
  TRACK 110 AUDIO
    TITLE "18:cjc023_1087"
    INDEX 01 02:12:15
  TRACK 111 AUDIO
    TITLE "0:"
    INDEX 01 02:13:32
  TRACK 112 AUDIO
    TITLE "19:cjc023_1088"
    INDEX 01 02:13:56
  TRACK 113 AUDIO
    TITLE "0:"
    INDEX 01 02:15:68
  TRACK 114 AUDIO
    TITLE "18:cjc023_1089"
    INDEX 01 02:16:66
  TRACK 115 AUDIO
    TITLE "0:"
    INDEX 01 02:18:02
  TRACK 116 AUDIO
    TITLE "19:cjc023_1090"
    INDEX 01 02:18:25
  TRACK 117 AUDIO
    TITLE "0:"
    INDEX 01 02:20:65
  TRACK 118 AUDIO
    TITLE "18:cjc023_1091"
    INDEX 01 02:21:67
  TRACK 119 AUDIO
    TITLE "0:"
    INDEX 01 02:23:09
  TRACK 120 AUDIO
    TITLE "19:cjc023_1092"
    INDEX 01 02:23:34
  TRACK 121 AUDIO
    TITLE "0:"
    INDEX 01 02:25:41
  TRACK 122 AUDIO
    TITLE "18:cjc023_1093"
    INDEX 01 02:26:39
  TRACK 123 AUDIO
    TITLE "0:"
    INDEX 01 02:27:62
  TRACK 124 AUDIO
    TITLE "19:cjc023_1094"
    INDEX 01 02:28:18
  TRACK 125 AUDIO
    TITLE "0:"
    INDEX 01 02:30:17
  TRACK 126 AUDIO
    TITLE "18:cjc023_1095"
    INDEX 01 02:31:18
  TRACK 127 AUDIO
    TITLE "0:"
    INDEX 01 02:32:53
  TRACK 128 AUDIO
    TITLE "19:cjc023_1096"
    INDEX 01 02:32:74
  TRACK 129 AUDIO
    TITLE "0:"
    INDEX 01 02:35:38
  TRACK 130 AUDIO
    TITLE "18:cjc023_1097"
    INDEX 01 02:36:33
  TRACK 131 AUDIO
    TITLE "0:"
    INDEX 01 02:37:52
  TRACK 132 AUDIO
    TITLE "19:cjc023_1098"
    INDEX 01 02:37:74
  TRACK 133 AUDIO
    TITLE "0:"
    INDEX 01 02:40:00
  TRACK 134 AUDIO
    TITLE "18:cjc023_1099"
    INDEX 01 02:40:70
  TRACK 135 AUDIO
    TITLE "0:"
    INDEX 01 02:42:16
  TRACK 136 AUDIO
    TITLE "19:cjc023_1100"
    INDEX 01 02:42:38
  TRACK 137 AUDIO
    TITLE "0:"
    INDEX 01 02:45:30
  TRACK 138 AUDIO
    TITLE "18:cjc023_1101"
    INDEX 01 02:46:26
  TRACK 139 AUDIO
    TITLE "0:"
    INDEX 01 02:47:52
  TRACK 140 AUDIO
    TITLE "19:cjc023_1102"
    INDEX 01 02:48:03
  TRACK 141 AUDIO
    TITLE "0:"
    INDEX 01 02:50:39
  TRACK 142 AUDIO
    TITLE "18:cjc023_1103"
    INDEX 01 02:51:39
  TRACK 143 AUDIO
    TITLE "0:"
    INDEX 01 02:52:52
  TRACK 144 AUDIO
    TITLE "19:cjc023_1104"
    INDEX 01 02:53:00
  TRACK 145 AUDIO
    TITLE "0:"
    INDEX 01 02:54:60
  TRACK 146 AUDIO
    TITLE "18:cjc023_1105"
    INDEX 01 02:55:58
  TRACK 147 AUDIO
    TITLE "0:"
    INDEX 01 02:56:63
  TRACK 148 AUDIO
    TITLE "19:cjc023_1106"
    INDEX 01 02:57:12
  TRACK 149 AUDIO
    TITLE "0:"
    INDEX 01 03:00:10
  TRACK 150 AUDIO
    TITLE "18:cjc023_1107"
    INDEX 01 03:01:13
  TRACK 151 AUDIO
    TITLE "0:"
    INDEX 01 03:02:05
  TRACK 152 AUDIO
    TITLE "19:cjc023_1108"
    INDEX 01 03:02:30
  TRACK 153 AUDIO
    TITLE "0:"
    INDEX 01 03:04:02
  TRACK 154 AUDIO
    TITLE "18:cjc023_1109"
    INDEX 01 03:04:74
  TRACK 155 AUDIO
    TITLE "0:"
    INDEX 01 03:06:05
  TRACK 156 AUDIO
    TITLE "19:cjc023_1110"
    INDEX 01 03:06:30
  TRACK 157 AUDIO
    TITLE "0:"
    INDEX 01 03:09:50
  TRACK 158 AUDIO
    TITLE "18:cjc023_1111"
    INDEX 01 03:10:46
  TRACK 159 AUDIO
    TITLE "0:"
    INDEX 01 03:11:37
  TRACK 160 AUDIO
    TITLE "19:cjc023_1112"
    INDEX 01 03:11:61
  TRACK 161 AUDIO
    TITLE "0:"
    INDEX 01 03:13:32
  TRACK 162 AUDIO
    TITLE "18:cjc023_1113"
    INDEX 01 03:14:28
  TRACK 163 AUDIO
    TITLE "0:"
    INDEX 01 03:15:31
  TRACK 164 AUDIO
    TITLE "19:cjc023_1114"
    INDEX 01 03:15:55
  TRACK 165 AUDIO
    TITLE "0:"
    INDEX 01 03:19:03
  TRACK 166 AUDIO
    TITLE "18:cjc023_1115"
    INDEX 01 03:20:01
  TRACK 167 AUDIO
    TITLE "0:"
    INDEX 01 03:21:12
  TRACK 168 AUDIO
    TITLE "19:cjc023_1116"
    INDEX 01 03:21:34
  TRACK 169 AUDIO
    TITLE "0:"
    INDEX 01 03:23:11
  TRACK 170 AUDIO
    TITLE "18:cjc023_1117"
    INDEX 01 03:24:09
  TRACK 171 AUDIO
    TITLE "0:"
    INDEX 01 03:25:12
  TRACK 172 AUDIO
    TITLE "19:cjc023_1118"
    INDEX 01 03:25:37
  TRACK 173 AUDIO
    TITLE "0:"
    INDEX 01 03:27:25
  TRACK 174 AUDIO
    TITLE "18:cjc023_1119"
    INDEX 01 03:28:20
  TRACK 175 AUDIO
    TITLE "0:"
    INDEX 01 03:29:43
  TRACK 176 AUDIO
    TITLE "19:cjc023_1120"
    INDEX 01 03:29:69
  TRACK 177 AUDIO
    TITLE "0:"
    INDEX 01 03:32:26
  TRACK 178 AUDIO
    TITLE "18:cjc023_1121"
    INDEX 01 03:33:25
  TRACK 179 AUDIO
    TITLE "0:"
    INDEX 01 03:34:38
  TRACK 180 AUDIO
    TITLE "19:cjc023_1122"
    INDEX 01 03:34:60
  TRACK 181 AUDIO
    TITLE "0:"
    INDEX 01 03:36:69
  TRACK 182 AUDIO
    TITLE "18:cjc023_1123"
    INDEX 01 03:37:62
  TRACK 183 AUDIO
    TITLE "0:"
    INDEX 01 03:39:14
  TRACK 184 AUDIO
    TITLE "19:cjc023_1124"
    INDEX 01 03:39:36
  TRACK 185 AUDIO
    TITLE "0:"
    INDEX 01 03:41:38
  TRACK 186 AUDIO
    TITLE "18:cjc023_1125"
    INDEX 01 03:42:36
  TRACK 187 AUDIO
    TITLE "0:"
    INDEX 01 03:43:51
  TRACK 188 AUDIO
    TITLE "19:cjc023_1126"
    INDEX 01 03:43:73
  TRACK 189 AUDIO
    TITLE "0:"
    INDEX 01 03:46:02
  TRACK 190 AUDIO
    TITLE "18:cjc023_1127"
    INDEX 01 03:47:00
  TRACK 191 AUDIO
    TITLE "0:"
    INDEX 01 03:48:13
  TRACK 192 AUDIO
    TITLE "19:cjc023_1128"
    INDEX 01 03:48:35
  TRACK 193 AUDIO
    TITLE "0:"
    INDEX 01 03:50:49
  TRACK 194 AUDIO
    TITLE "18:cjc023_1129"
    INDEX 01 03:51:49
  TRACK 195 AUDIO
    TITLE "0:"
    INDEX 01 03:52:70
  TRACK 196 AUDIO
    TITLE "19:cjc023_1130"
    INDEX 01 03:53:18
  TRACK 197 AUDIO
    TITLE "0:"
    INDEX 01 03:55:19
  TRACK 198 AUDIO
    TITLE "18:cjc023_1131"
    INDEX 01 03:56:18
  TRACK 199 AUDIO
    TITLE "0:"
    INDEX 01 03:57:45
  TRACK 200 AUDIO
    TITLE "19:cjc023_1132"
    INDEX 01 03:57:65
  TRACK 201 AUDIO
    TITLE "0:"
    INDEX 01 03:59:60
  TRACK 202 AUDIO
    TITLE "18:cjc023_1133"
    INDEX 01 04:00:59
  TRACK 203 AUDIO
    TITLE "0:"
    INDEX 01 04:02:07
  TRACK 204 AUDIO
    TITLE "19:cjc023_1134"
    INDEX 01 04:02:31
  TRACK 205 AUDIO
    TITLE "0:"
    INDEX 01 04:04:14
  TRACK 206 AUDIO
    TITLE "18:cjc023_1135"
    INDEX 01 04:05:13
  TRACK 207 AUDIO
    TITLE "0:"
    INDEX 01 04:06:32
  TRACK 208 AUDIO
    TITLE "19:cjc023_1136"
    INDEX 01 04:06:52
  TRACK 209 AUDIO
    TITLE "0:"
    INDEX 01 04:09:54
  TRACK 210 AUDIO
    TITLE "18:cjc023_1137"
    INDEX 01 04:10:50
  TRACK 211 AUDIO
    TITLE "0:"
    INDEX 01 04:11:53
  TRACK 212 AUDIO
    TITLE "19:cjc023_1138"
    INDEX 01 04:12:00
  TRACK 213 AUDIO
    TITLE "0:"
    INDEX 01 04:14:08
  TRACK 214 AUDIO
    TITLE "18:cjc023_1139"
    INDEX 01 04:15:02
  TRACK 215 AUDIO
    TITLE "0:"
    INDEX 01 04:16:07
  TRACK 216 AUDIO
    TITLE "19:cjc023_1140"
    INDEX 01 04:16:27
  TRACK 217 AUDIO
    TITLE "0:"
    INDEX 01 04:18:04
  TRACK 218 AUDIO
    TITLE "18:cjc023_1141"
    INDEX 01 04:19:00
  TRACK 219 AUDIO
    TITLE "0:"
    INDEX 01 04:20:05
  TRACK 220 AUDIO
    TITLE "19:cjc023_1142"
    INDEX 01 04:20:36
  TRACK 221 AUDIO
    TITLE "0:"
    INDEX 01 04:22:28
  TRACK 222 AUDIO
    TITLE "18:cjc023_1143"
    INDEX 01 04:23:23
  TRACK 223 AUDIO
    TITLE "0:"
    INDEX 01 04:24:48
  TRACK 224 AUDIO
    TITLE "19:cjc023_1144"
    INDEX 01 04:24:68
  TRACK 225 AUDIO
    TITLE "0:"
    INDEX 01 04:26:66
  TRACK 226 AUDIO
    TITLE "18:cjc023_1145"
    INDEX 01 04:27:60
  TRACK 227 AUDIO
    TITLE "0:"
    INDEX 01 04:28:69
  TRACK 228 AUDIO
    TITLE "19:cjc023_1146"
    INDEX 01 04:29:18
  TRACK 229 AUDIO
    TITLE "0:"
    INDEX 01 04:30:74
  TRACK 230 AUDIO
    TITLE "18:cjc023_1147"
    INDEX 01 04:31:70
  TRACK 231 AUDIO
    TITLE "0:"
    INDEX 01 04:33:08
  TRACK 232 AUDIO
    TITLE "19:cjc023_1148"
    INDEX 01 04:33:35
  TRACK 233 AUDIO
    TITLE "0:"
    INDEX 01 04:35:56
  TRACK 234 AUDIO
    TITLE "18:cjc023_1149"
    INDEX 01 04:36:49
  TRACK 235 AUDIO
    TITLE "0:"
    INDEX 01 04:37:66
  TRACK 236 AUDIO
    TITLE "19:cjc023_1150"
    INDEX 01 04:38:13
  TRACK 237 AUDIO
    TITLE "0:"
    INDEX 01 04:40:08
  TRACK 238 AUDIO
    TITLE "18:cjc023_1151"
    INDEX 01 04:41:05
  TRACK 239 AUDIO
    TITLE "0:"
    INDEX 01 04:42:30
  TRACK 240 AUDIO
    TITLE "19:cjc023_1152"
    INDEX 01 04:42:56
  TRACK 241 AUDIO
    TITLE "0:"
    INDEX 01 04:44:35
  TRACK 242 AUDIO
    TITLE "18:cjc023_1153"
    INDEX 01 04:45:33
  TRACK 243 AUDIO
    TITLE "0:"
    INDEX 01 04:46:54
  TRACK 244 AUDIO
    TITLE "19:cjc023_1154"
    INDEX 01 04:47:00
  TRACK 245 AUDIO
    TITLE "0:"
    INDEX 01 04:50:18
  TRACK 246 AUDIO
    TITLE "18:cjc023_1155"
    INDEX 01 04:51:15
  TRACK 247 AUDIO
    TITLE "0:"
    INDEX 01 04:52:23
  TRACK 248 AUDIO
    TITLE "19:cjc023_1156"
    INDEX 01 04:52:48
  TRACK 249 AUDIO
    TITLE "0:"
    INDEX 01 04:54:51
  TRACK 250 AUDIO
    TITLE "18:cjc023_1157"
    INDEX 01 04:55:49
  TRACK 251 AUDIO
    TITLE "0:"
    INDEX 01 04:57:00
  TRACK 252 AUDIO
    TITLE "19:cjc023_1158"
    INDEX 01 04:57:22
  TRACK 253 AUDIO
    TITLE "0:"
    INDEX 01 04:59:62
  TRACK 254 AUDIO
    TITLE "18:cjc023_1159"
    INDEX 01 05:00:60
  TRACK 255 AUDIO
    TITLE "0:"
    INDEX 01 05:02:11
  TRACK 256 AUDIO
    TITLE "19:cjc023_1160"
    INDEX 01 05:02:33
  TRACK 257 AUDIO
    TITLE "0:"
    INDEX 01 05:04:28
  TRACK 258 AUDIO
    TITLE "18:cjc023_1161"
    INDEX 01 05:05:25
  TRACK 259 AUDIO
    TITLE "0:"
    INDEX 01 05:06:52
  TRACK 260 AUDIO
    TITLE "19:cjc023_1162"
    INDEX 01 05:07:01
  TRACK 261 AUDIO
    TITLE "0:"
    INDEX 01 05:10:19
  TRACK 262 AUDIO
    TITLE "18:cjc023_1163"
    INDEX 01 05:11:18
  TRACK 263 AUDIO
    TITLE "0:"
    INDEX 01 05:12:61
  TRACK 264 AUDIO
    TITLE "19:cjc023_1164"
    INDEX 01 05:13:07
  TRACK 265 AUDIO
    TITLE "0:"
    INDEX 01 05:16:29
  TRACK 266 AUDIO
    TITLE "18:cjc023_1165"
    INDEX 01 05:17:25
  TRACK 267 AUDIO
    TITLE "0:"
    INDEX 01 05:18:59
  TRACK 268 AUDIO
    TITLE "19:cjc023_1166"
    INDEX 01 05:19:08
  TRACK 269 AUDIO
    TITLE "0:"
    INDEX 01 05:21:22
  TRACK 270 AUDIO
    TITLE "18:cjc023_1167"
    INDEX 01 05:22:20
  TRACK 271 AUDIO
    TITLE "0:"
    INDEX 01 05:23:59
  TRACK 272 AUDIO
    TITLE "19:cjc023_1168"
    INDEX 01 05:24:07
  TRACK 273 AUDIO
    TITLE "0:"
    INDEX 01 05:26:37
  TRACK 274 AUDIO
    TITLE "18:cjc023_1169"
    INDEX 01 05:27:35
  TRACK 275 AUDIO
    TITLE "0:"
    INDEX 01 05:28:52
  TRACK 276 AUDIO
    TITLE "19:cjc023_1170"
    INDEX 01 05:29:02
  TRACK 277 AUDIO
    TITLE "0:"
    INDEX 01 05:31:07
  TRACK 278 AUDIO
    TITLE "18:cjc023_1171"
    INDEX 01 05:32:03
  TRACK 279 AUDIO
    TITLE "0:"
    INDEX 01 05:33:35
  TRACK 280 AUDIO
    TITLE "19:cjc023_1172"
    INDEX 01 05:33:57
  TRACK 281 AUDIO
    TITLE "0:"
    INDEX 01 05:35:68
  TRACK 282 AUDIO
    TITLE "18:cjc023_1173"
    INDEX 01 05:36:65
  TRACK 283 AUDIO
    TITLE "0:"
    INDEX 01 05:37:74
  TRACK 284 AUDIO
    TITLE "19:cjc023_1174"
    INDEX 01 05:38:23
  TRACK 285 AUDIO
    TITLE "0:"
    INDEX 01 05:41:37
  TRACK 286 AUDIO
    TITLE "18:cjc023_1175"
    INDEX 01 05:42:36
  TRACK 287 AUDIO
    TITLE "0:"
    INDEX 01 05:43:51
  TRACK 288 AUDIO
    TITLE "19:cjc023_1176"
    INDEX 01 05:43:69
  TRACK 289 AUDIO
    TITLE "0:"
    INDEX 01 05:45:60
  TRACK 290 AUDIO
    TITLE "18:cjc023_1177"
    INDEX 01 05:46:56
  TRACK 291 AUDIO
    TITLE "0:"
    INDEX 01 05:48:00
  TRACK 292 AUDIO
    TITLE "19:cjc023_1178"
    INDEX 01 05:48:21
  TRACK 293 AUDIO
    TITLE "0:"
    INDEX 01 05:51:33
  TRACK 294 AUDIO
    TITLE "18:cjc023_1179"
    INDEX 01 05:52:27
  TRACK 295 AUDIO
    TITLE "0:"
    INDEX 01 05:53:46
  TRACK 296 AUDIO
    TITLE "19:cjc023_1180"
    INDEX 01 05:53:69
  TRACK 297 AUDIO
    TITLE "0:"
    INDEX 01 05:56:38
  TRACK 298 AUDIO
    TITLE "18:cjc023_1181"
    INDEX 01 05:57:36
  TRACK 299 AUDIO
    TITLE "0:"
    INDEX 01 05:58:41
  TRACK 300 AUDIO
    TITLE "19:cjc023_1182"
    INDEX 01 05:58:69
  TRACK 301 AUDIO
    TITLE "0:"
    INDEX 01 06:00:23
  TRACK 302 AUDIO
    TITLE "18:cjc023_1183"
    INDEX 01 06:01:22
  TRACK 303 AUDIO
    TITLE "0:"
    INDEX 01 06:02:43
  TRACK 304 AUDIO
    TITLE "19:cjc023_1184"
    INDEX 01 06:02:65
  TRACK 305 AUDIO
    TITLE "0:"
    INDEX 01 06:05:26
  TRACK 306 AUDIO
    TITLE "18:cjc023_1185"
    INDEX 01 06:06:23
  TRACK 307 AUDIO
    TITLE "0:"
    INDEX 01 06:07:34
  TRACK 308 AUDIO
    TITLE "19:cjc023_1186"
    INDEX 01 06:07:56
  TRACK 309 AUDIO
    TITLE "0:"
    INDEX 01 06:10:13
  TRACK 310 AUDIO
    TITLE "18:cjc023_1187"
    INDEX 01 06:11:11
  TRACK 311 AUDIO
    TITLE "0:"
    INDEX 01 06:12:37
  TRACK 312 AUDIO
    TITLE "19:cjc023_1188"
    INDEX 01 06:12:61
  TRACK 313 AUDIO
    TITLE "0:"
    INDEX 01 06:15:65
  TRACK 314 AUDIO
    TITLE "18:cjc023_1189"
    INDEX 01 06:16:61
  TRACK 315 AUDIO
    TITLE "0:"
    INDEX 01 06:17:64
  TRACK 316 AUDIO
    TITLE "19:cjc023_1190"
    INDEX 01 06:18:11
  TRACK 317 AUDIO
    TITLE "0:"
    INDEX 01 06:19:59
  TRACK 318 AUDIO
    TITLE "18:cjc023_1191"
    INDEX 01 06:20:57
  TRACK 319 AUDIO
    TITLE "0:"
    INDEX 01 06:21:72
  TRACK 320 AUDIO
    TITLE "19:cjc023_1192"
    INDEX 01 06:22:18
  TRACK 321 AUDIO
    TITLE "0:"
    INDEX 01 06:24:00
  TRACK 322 AUDIO
    TITLE "18:cjc023_1193"
    INDEX 01 06:24:70
  TRACK 323 AUDIO
    TITLE "0:"
    INDEX 01 06:26:20
  TRACK 324 AUDIO
    TITLE "19:cjc023_1194"
    INDEX 01 06:26:43
  TRACK 325 AUDIO
    TITLE "0:"
    INDEX 01 06:28:38
  TRACK 326 AUDIO
    TITLE "18:cjc023_1195"
    INDEX 01 06:29:36
  TRACK 327 AUDIO
    TITLE "0:"
    INDEX 01 06:30:61
  TRACK 328 AUDIO
    TITLE "19:cjc023_1196"
    INDEX 01 06:31:11
  TRACK 329 AUDIO
    TITLE "0:"
    INDEX 01 06:33:24
  TRACK 330 AUDIO
    TITLE "18:cjc023_1197"
    INDEX 01 06:34:23
  TRACK 331 AUDIO
    TITLE "0:"
    INDEX 01 06:35:39
  TRACK 332 AUDIO
    TITLE "19:cjc023_1198"
    INDEX 01 06:35:60
  TRACK 333 AUDIO
    TITLE "0:"
    INDEX 01 06:37:33
  TRACK 334 AUDIO
    TITLE "18:cjc023_1199"
    INDEX 01 06:38:31
  TRACK 335 AUDIO
    TITLE "0:"
    INDEX 01 06:40:00
  TRACK 336 AUDIO
    TITLE "19:cjc023_1200"
    INDEX 01 06:40:22
  TRACK 337 AUDIO
    TITLE "0:"
    INDEX 01 06:43:48
  TRACK 338 AUDIO
    TITLE "18:cjc023_1201"
    INDEX 01 06:44:49
  TRACK 339 AUDIO
    TITLE "0:"
    INDEX 01 06:45:74
  TRACK 340 AUDIO
    TITLE "19:cjc023_1202"
    INDEX 01 06:46:23
  TRACK 341 AUDIO
    TITLE "0:"
    INDEX 01 06:48:33
  TRACK 342 AUDIO
    TITLE "18:cjc023_1203"
    INDEX 01 06:49:33
  TRACK 343 AUDIO
    TITLE "0:"
    INDEX 01 06:50:44
  TRACK 344 AUDIO
    TITLE "19:cjc023_1204"
    INDEX 01 06:50:67
  TRACK 345 AUDIO
    TITLE "0:"
    INDEX 01 06:53:13
  TRACK 346 AUDIO
    TITLE "18:cjc023_1205"
    INDEX 01 06:54:12
  TRACK 347 AUDIO
    TITLE "0:"
    INDEX 01 06:55:26
  TRACK 348 AUDIO
    TITLE "19:cjc023_1206"
    INDEX 01 06:55:47
  TRACK 349 AUDIO
    TITLE "0:"
    INDEX 01 06:57:38
  TRACK 350 AUDIO
    TITLE "18:cjc023_1207"
    INDEX 01 06:58:36
  TRACK 351 AUDIO
    TITLE "0:"
    INDEX 01 06:59:39
  TRACK 352 AUDIO
    TITLE "19:cjc023_1208"
    INDEX 01 06:59:63
  TRACK 353 AUDIO
    TITLE "0:"
    INDEX 01 07:02:43
  TRACK 354 AUDIO
    TITLE "18:cjc023_1209"
    INDEX 01 07:03:39
  TRACK 355 AUDIO
    TITLE "0:"
    INDEX 01 07:04:66
  TRACK 356 AUDIO
    TITLE "19:cjc023_1210"
    INDEX 01 07:05:12
  TRACK 357 AUDIO
    TITLE "0:"
    INDEX 01 07:07:56
  TRACK 358 AUDIO
    TITLE "18:cjc023_1211"
    INDEX 01 07:08:52
  TRACK 359 AUDIO
    TITLE "0:"
    INDEX 01 07:10:29
  TRACK 360 AUDIO
    TITLE "19:cjc023_1212"
    INDEX 01 07:10:51
  TRACK 361 AUDIO
    TITLE "0:"
    INDEX 01 07:14:19
  TRACK 362 AUDIO
    TITLE "18:cjc023_1213"
    INDEX 01 07:15:20
  TRACK 363 AUDIO
    TITLE "0:"
    INDEX 01 07:16:36
  TRACK 364 AUDIO
    TITLE "19:cjc023_1214"
    INDEX 01 07:16:63
  TRACK 365 AUDIO
    TITLE "0:"
    INDEX 01 07:18:58
  TRACK 366 AUDIO
    TITLE "18:cjc023_1215"
    INDEX 01 07:19:55
  TRACK 367 AUDIO
    TITLE "0:"
    INDEX 01 07:20:61
  TRACK 368 AUDIO
    TITLE "19:cjc023_1216"
    INDEX 01 07:21:07
  TRACK 369 AUDIO
    TITLE "0:"
    INDEX 01 07:23:16
  TRACK 370 AUDIO
    TITLE "18:cjc023_1217"
    INDEX 01 07:24:13
  TRACK 371 AUDIO
    TITLE "0:"
    INDEX 01 07:25:27
  TRACK 372 AUDIO
    TITLE "19:cjc023_1218"
    INDEX 01 07:25:48
  TRACK 373 AUDIO
    TITLE "0:"
    INDEX 01 07:28:03
  TRACK 374 AUDIO
    TITLE "18:cjc023_1219"
    INDEX 01 07:28:74
  TRACK 375 AUDIO
    TITLE "0:"
    INDEX 01 07:30:24
  TRACK 376 AUDIO
    TITLE "19:cjc023_1220"
    INDEX 01 07:30:47
  TRACK 377 AUDIO
    TITLE "0:"
    INDEX 01 07:33:63
  TRACK 378 AUDIO
    TITLE "18:cjc023_1221"
    INDEX 01 07:34:61
  TRACK 379 AUDIO
    TITLE "0:"
    INDEX 01 07:36:03
  TRACK 380 AUDIO
    TITLE "19:cjc023_1222"
    INDEX 01 07:36:28
  TRACK 381 AUDIO
    TITLE "0:"
    INDEX 01 07:38:63
  TRACK 382 AUDIO
    TITLE "18:cjc023_1223"
    INDEX 01 07:39:60
  TRACK 383 AUDIO
    TITLE "0:"
    INDEX 01 07:40:65
  TRACK 384 AUDIO
    TITLE "19:cjc023_1224"
    INDEX 01 07:41:12
  TRACK 385 AUDIO
    TITLE "0:"
    INDEX 01 07:42:56
  TRACK 386 AUDIO
    TITLE "18:cjc023_1225"
    INDEX 01 07:43:52
  TRACK 387 AUDIO
    TITLE "0:"
    INDEX 01 07:44:63
  TRACK 388 AUDIO
    TITLE "19:cjc023_1226"
    INDEX 01 07:45:08
  TRACK 389 AUDIO
    TITLE "0:"
    INDEX 01 07:46:58
  TRACK 390 AUDIO
    TITLE "18:cjc023_1227"
    INDEX 01 07:47:56
  TRACK 391 AUDIO
    TITLE "0:"
    INDEX 01 07:49:02
  TRACK 392 AUDIO
    TITLE "19:cjc023_1228"
    INDEX 01 07:49:23
  TRACK 393 AUDIO
    TITLE "0:"
    INDEX 01 07:51:36
  TRACK 394 AUDIO
    TITLE "18:cjc023_1229"
    INDEX 01 07:52:33
  TRACK 395 AUDIO
    TITLE "0:"
    INDEX 01 07:53:52
  TRACK 396 AUDIO
    TITLE "19:cjc023_1230"
    INDEX 01 07:53:72
  TRACK 397 AUDIO
    TITLE "0:"
    INDEX 01 07:55:69
  TRACK 398 AUDIO
    TITLE "18:cjc023_1231"
    INDEX 01 07:56:68
  TRACK 399 AUDIO
    TITLE "0:"
    INDEX 01 07:57:74
  TRACK 400 AUDIO
    TITLE "19:cjc023_1232"
    INDEX 01 07:58:22
  TRACK 401 AUDIO
    TITLE "0:"
    INDEX 01 08:00:07
